<svg xmlns="http://www.w3.org/2000/svg" xmlns:xlink="http://www.w3.org/1999/xlink" width="500" zoomAndPan="magnify" viewBox="0 0 375 112.499997" height="150" preserveAspectRatio="xMidYMid meet" version="1.0"><defs><g/></defs><g fill="rgb(96.078491%, 33.729553%, 31.369019%)" fill-opacity="1"><g transform="translate(83.1768, 90.091992)"><g><path d="M 12.328125 -7.472656 L 12.328125 -37.355469 L 4.269531 -37.355469 L 4.269531 0 L 26.683594 0 L 26.683594 -7.472656 Z M 12.328125 -7.472656 "/></g></g></g><g fill="rgb(96.078491%, 33.729553%, 31.369019%)" fill-opacity="1"><g transform="translate(111.244191, 90.091992)"><g><path d="M 3.734375 -32.660156 L 11.472656 -32.660156 L 11.472656 -39.863281 L 3.734375 -39.863281 Z M 3.734375 0 L 11.527344 0 L 11.527344 -28.816406 L 3.734375 -28.816406 Z M 3.734375 0 "/></g></g></g><g fill="rgb(96.078491%, 33.729553%, 31.369019%)" fill-opacity="1"><g transform="translate(126.718613, 90.091992)"><g><path d="M 20.117188 -29.457031 C 16.222656 -29.457031 12.753906 -27.800781 10.566406 -25.242188 L 9.070312 -28.816406 L 3.734375 -28.816406 L 3.734375 0 L 11.527344 0 L 11.527344 -15.101562 C 11.527344 -19.746094 13.980469 -22.625 17.984375 -22.625 C 21.34375 -22.625 23 -20.546875 23 -16.167969 L 23 0 L 30.789062 0 L 30.789062 -17.449219 C 30.789062 -24.761719 26.683594 -29.457031 20.117188 -29.457031 Z M 20.117188 -29.457031 "/></g></g></g><g fill="rgb(96.078491%, 33.729553%, 31.369019%)" fill-opacity="1"><g transform="translate(161.135846, 90.091992)"><g><path d="M 30.152344 0 L 19.371094 -15.046875 L 29.136719 -28.816406 L 20.171875 -28.816406 L 11.527344 -16.007812 L 11.527344 -39.167969 L 3.734375 -39.167969 L 3.734375 0 L 11.527344 0 L 11.527344 -13.769531 L 20.707031 0 Z M 30.152344 0 "/></g></g></g><g fill="rgb(58.81958%, 61.959839%, 65.098572%)" fill-opacity="1"><g transform="translate(191.275074, 90.091992)"><g><path d="M 12.328125 -7.472656 L 12.328125 -15.15625 L 25.292969 -15.15625 L 25.292969 -22.464844 L 12.328125 -22.464844 L 12.328125 -29.882812 L 26.683594 -29.882812 L 26.683594 -37.355469 L 4.269531 -37.355469 L 4.269531 0 L 27.269531 0 L 27.269531 -7.472656 Z M 12.328125 -7.472656 "/></g></g></g><g fill="rgb(58.81958%, 61.959839%, 65.098572%)" fill-opacity="1"><g transform="translate(221.316775, 90.091992)"><g><path d="M 28.976562 0 L 19.105469 -15.15625 L 28.390625 -28.816406 L 19.851562 -28.816406 L 14.460938 -20.4375 L 9.5 -28.816406 L 0.695312 -28.816406 L 9.820312 -14.78125 L 0.0546875 0 L 8.644531 0 L 14.460938 -9.5 L 20.171875 0 Z M 28.976562 0 "/></g></g></g><g fill="rgb(58.81958%, 61.959839%, 65.098572%)" fill-opacity="1"><g transform="translate(250.611447, 90.091992)"><g><path d="M 19.425781 -29.617188 C 15.847656 -29.617188 12.648438 -28.335938 10.191406 -26.148438 L 8.859375 -28.816406 L 3.734375 -28.816406 L 3.734375 10.40625 L 11.527344 10.40625 L 11.527344 -1.546875 C 13.714844 0 16.4375 0.90625 19.425781 0.90625 C 28.121094 0.90625 34.527344 -5.65625 34.527344 -14.40625 C 34.527344 -23.105469 28.121094 -29.617188 19.425781 -29.617188 Z M 18.785156 -6.511719 C 14.25 -6.511719 10.941406 -9.871094 10.941406 -14.40625 C 10.941406 -18.890625 14.25 -22.304688 18.785156 -22.304688 C 23.320312 -22.304688 26.628906 -18.890625 26.628906 -14.40625 C 26.628906 -9.871094 23.320312 -6.511719 18.785156 -6.511719 Z M 18.785156 -6.511719 "/></g></g></g><g fill="rgb(58.81958%, 61.959839%, 65.098572%)" fill-opacity="1"><g transform="translate(287.216441, 90.091992)"><g><path d="M 18.464844 -28.976562 C 14.726562 -28.976562 12.167969 -27.800781 10.085938 -25.242188 L 8.699219 -28.816406 L 3.734375 -28.816406 L 3.734375 0 L 11.527344 0 L 11.527344 -14.941406 C 11.527344 -19.636719 13.234375 -21.613281 17.609375 -21.613281 L 21.023438 -21.613281 L 21.023438 -28.976562 Z M 18.464844 -28.976562 "/></g></g></g><g fill="rgb(58.81958%, 61.959839%, 65.098572%)" fill-opacity="1"><g transform="translate(309.147425, 90.091992)"><g><path d="M 31.699219 -14.460938 C 31.699219 -22.785156 25.613281 -29.617188 16.757812 -29.617188 C 8.21875 -29.617188 1.8125 -23.054688 1.8125 -14.40625 C 1.8125 -5.761719 8.269531 0.855469 16.757812 0.855469 C 23.480469 0.855469 28.976562 -3.148438 31.058594 -9.445312 L 22.894531 -9.445312 C 21.71875 -7.363281 19.476562 -6.082031 16.757812 -6.082031 C 12.96875 -6.082031 10.40625 -8.269531 9.710938 -12.21875 L 31.539062 -12.21875 C 31.644531 -12.96875 31.699219 -13.714844 31.699219 -14.460938 Z M 16.757812 -22.945312 C 20.277344 -22.945312 22.785156 -21.023438 23.90625 -17.503906 L 9.925781 -17.503906 C 10.832031 -20.917969 13.289062 -22.945312 16.757812 -22.945312 Z M 16.757812 -22.945312 "/></g></g></g><g fill="rgb(58.81958%, 61.959839%, 65.098572%)" fill-opacity="1"><g transform="translate(342.870963, 90.091992)"><g><path d="M 13.929688 0.855469 C 21.238281 0.855469 26.042969 -2.988281 26.042969 -8.859375 C 26.042969 -15.902344 20.011719 -16.863281 15.316406 -17.714844 C 12.328125 -18.25 9.871094 -18.730469 9.871094 -20.652344 C 9.871094 -22.304688 11.3125 -23.375 13.714844 -23.375 C 16.4375 -23.375 18.035156 -22.253906 18.089844 -19.957031 L 25.507812 -19.957031 C 25.453125 -25.722656 20.863281 -29.617188 13.929688 -29.617188 C 6.992188 -29.617188 2.347656 -25.828125 2.347656 -20.386719 C 2.347656 -13.609375 8.21875 -12.378906 12.808594 -11.578125 C 15.847656 -11.101562 18.355469 -10.511719 18.355469 -8.539062 C 18.355469 -6.617188 16.382812 -5.601562 14.25 -5.601562 C 11.472656 -5.601562 9.5 -6.882812 9.445312 -9.445312 L 1.867188 -9.445312 C 1.867188 -3.308594 6.722656 0.855469 13.929688 0.855469 Z M 13.929688 0.855469 "/></g></g></g><path fill="rgb(96.078491%, 33.729553%, 31.369019%)" d="M 4.859375 36.320312 C 4.859375 48.625 4.886719 55.96875 4.933594 56.226562 C 4.976562 56.453125 5.0625 57.1875 5.128906 57.859375 C 5.222656 58.855469 5.429688 60.054688 5.664062 60.976562 C 6.273438 63.378906 7.023438 65.847656 7.402344 66.679688 C 7.457031 66.804688 7.566406 67.097656 7.636719 67.324219 C 7.710938 67.554688 7.835938 67.863281 7.914062 68.007812 C 7.992188 68.15625 8.054688 68.304688 8.054688 68.335938 C 8.054688 68.371094 8.160156 68.613281 8.289062 68.871094 C 8.417969 69.128906 8.59375 69.53125 8.679688 69.761719 C 8.765625 69.988281 8.894531 70.265625 8.964844 70.367188 C 9.035156 70.472656 9.140625 70.679688 9.195312 70.824219 C 9.339844 71.191406 9.929688 72.300781 10.234375 72.777344 C 10.375 72.996094 10.488281 73.195312 10.488281 73.21875 C 10.488281 73.246094 10.621094 73.460938 10.78125 73.699219 C 10.941406 73.9375 11.128906 74.253906 11.199219 74.398438 C 11.308594 74.628906 11.84375 75.375 12.644531 76.410156 C 14.703125 79.066406 19.457031 83.40625 21.78125 84.75 C 21.949219 84.847656 22.296875 85.089844 22.558594 85.289062 C 23.019531 85.644531 23.308594 85.816406 24.480469 86.433594 C 24.796875 86.601562 25.222656 86.835938 25.433594 86.953125 C 25.640625 87.074219 25.933594 87.230469 26.078125 87.296875 C 26.226562 87.363281 26.890625 87.683594 27.5625 88.011719 C 28.230469 88.339844 28.984375 88.664062 29.234375 88.734375 C 29.484375 88.804688 29.757812 88.90625 29.84375 88.957031 C 29.925781 89.007812 30.0625 89.070312 30.148438 89.09375 C 30.230469 89.117188 30.898438 89.308594 31.628906 89.519531 C 32.363281 89.730469 33.21875 89.957031 33.53125 90.023438 C 34.671875 90.265625 35.175781 90.363281 35.714844 90.441406 C 36.089844 90.496094 42.867188 90.523438 57.445312 90.523438 L 78.628906 90.523438 L 78.628906 16.828125 L 4.859375 16.828125 L 4.859375 36.320312 M 18.015625 24.148438 C 18.015625 26.445312 18.183594 42.589844 18.246094 46.527344 C 18.484375 60.851562 19.023438 63.074219 23.605469 68.65625 C 26.785156 72.53125 29.03125 74.242188 32.46875 75.414062 C 35.238281 76.359375 38.066406 76.765625 44.484375 77.148438 C 45.359375 77.199219 50.777344 77.246094 58.875 77.265625 L 71.859375 77.300781 L 71.859375 83.847656 L 59.445312 83.804688 C 47.839844 83.765625 45.484375 83.726562 41.898438 83.523438 C 31.078125 82.90625 26.605469 81.113281 20.632812 74.988281 C 13.839844 68.023438 12.402344 64.347656 11.777344 52.34375 C 11.699219 50.882812 11.570312 36.039062 11.558594 27.761719 L 11.554688 23.519531 L 18.015625 23.519531 L 18.015625 24.148438 M 31.726562 37.230469 C 31.765625 52.417969 31.792969 53.425781 32.28125 56.222656 C 33.101562 60.921875 35.222656 62.714844 40.703125 63.332031 C 43.097656 63.605469 43.992188 63.621094 57.964844 63.652344 L 71.863281 63.6875 L 71.84375 67.121094 L 71.824219 70.558594 L 63.914062 70.578125 C 37.214844 70.652344 35.324219 70.394531 30.550781 65.992188 C 26.550781 62.304688 25.589844 60.027344 25.089844 53.066406 C 24.914062 50.617188 24.863281 46.574219 24.863281 35.367188 L 24.863281 23.519531 L 31.695312 23.519531 L 31.726562 37.230469 M 71.859375 40.214844 L 71.859375 56.910156 L 55.796875 56.890625 C 38.078125 56.867188 39.460938 56.90625 38.941406 56.429688 C 38.4375 55.964844 38.476562 57.394531 38.476562 39.585938 L 38.476562 23.519531 L 71.859375 23.519531 L 71.859375 40.214844 " fill-opacity="1" fill-rule="evenodd"/></svg>