<svg xmlns="http://www.w3.org/2000/svg" xmlns:xlink="http://www.w3.org/1999/xlink" width="1080" zoomAndPan="magnify" viewBox="0 0 810 809.999993" height="1080" preserveAspectRatio="xMidYMid meet" version="1.0"><path fill="rgb(96.078491%, 33.729553%, 31.369019%)" d="M 39.75 234.988281 C 39.75 356.339844 40.019531 428.726562 40.480469 431.300781 C 40.878906 433.539062 41.738281 440.777344 42.382812 447.375 C 43.339844 457.21875 45.375 469.054688 47.671875 478.125 C 53.667969 501.839844 61.082031 526.183594 64.800781 534.375 C 65.359375 535.613281 66.417969 538.480469 67.148438 540.75 C 67.875 543.019531 69.097656 546.050781 69.863281 547.488281 C 70.625 548.925781 71.25 550.378906 71.25 550.71875 C 71.25 551.058594 72.292969 553.425781 73.566406 555.980469 C 74.84375 558.535156 76.578125 562.480469 77.425781 564.75 C 78.269531 567.019531 79.53125 569.71875 80.222656 570.75 C 80.917969 571.78125 81.953125 573.804688 82.515625 575.25 C 83.933594 578.863281 89.746094 589.804688 92.757812 594.527344 C 94.128906 596.671875 95.25 598.628906 95.25 598.878906 C 95.25 599.128906 96.550781 601.253906 98.136719 603.605469 C 99.726562 605.953125 101.582031 609.058594 102.261719 610.5 C 103.34375 612.789062 108.621094 620.132812 116.527344 630.34375 C 136.808594 656.542969 183.6875 699.332031 206.625 712.585938 C 208.273438 713.539062 211.71875 715.929688 214.28125 717.902344 C 218.816406 721.394531 221.675781 723.09375 233.25 729.195312 C 236.34375 730.828125 240.5625 733.132812 242.625 734.324219 C 244.6875 735.515625 247.554688 737.023438 249 737.683594 C 250.445312 738.339844 257.023438 741.519531 263.625 744.746094 C 270.222656 747.972656 277.648438 751.183594 280.125 751.882812 C 282.601562 752.582031 285.300781 753.570312 286.125 754.078125 C 286.949219 754.585938 288.300781 755.191406 289.125 755.421875 C 289.949219 755.652344 296.53125 757.542969 303.75 759.621094 C 310.96875 761.703125 319.40625 763.9375 322.5 764.59375 C 333.761719 766.972656 338.730469 767.921875 344.019531 768.703125 C 347.730469 769.25 414.558594 769.5 558.332031 769.5 L 767.25 769.5 L 767.25 42.75 L 39.75 42.75 L 39.75 234.988281 M 169.496094 114.9375 C 169.484375 137.585938 171.121094 296.796875 171.769531 335.625 C 174.113281 476.910156 179.421875 498.832031 224.613281 553.875 C 255.96875 592.0625 278.132812 608.960938 312.015625 620.515625 C 339.320312 629.820312 367.222656 633.847656 430.5 637.609375 C 439.152344 638.121094 492.59375 638.5625 572.4375 638.777344 L 700.5 639.121094 L 700.5 703.691406 L 578.0625 703.269531 C 463.59375 702.875 440.367188 702.503906 405 700.484375 C 298.285156 694.390625 254.214844 676.699219 195.289062 616.300781 C 128.296875 547.640625 114.113281 511.378906 107.949219 393 C 107.199219 378.59375 105.902344 232.210938 105.800781 150.5625 L 105.75 108.75 L 169.5 108.75 L 169.496094 114.9375 M 304.714844 243.9375 C 305.074219 393.726562 305.363281 403.660156 310.167969 431.25 C 318.242188 477.597656 339.164062 495.261719 393.230469 501.371094 C 416.839844 504.039062 425.671875 504.203125 563.445312 504.527344 L 700.515625 504.851562 L 700.125 572.625 L 622.125 572.839844 C 358.820312 573.5625 340.171875 570.996094 293.089844 527.574219 C 253.675781 491.230469 244.195312 468.785156 239.261719 400.125 C 237.523438 375.964844 237.007812 336.082031 237.003906 225.5625 L 237 108.75 L 304.390625 108.75 L 304.714844 243.9375 M 700.5 273.382812 L 700.5 438.019531 L 542.0625 437.820312 C 367.34375 437.605469 380.960938 437.976562 375.847656 433.277344 C 370.898438 428.722656 371.285156 442.800781 371.265625 267.1875 L 371.25 108.75 L 700.5 108.75 L 700.5 273.382812 " fill-opacity="1" fill-rule="evenodd"/></svg>